<?xml version="1.0" encoding="UTF-8"?>
<svg version="1.1" xmlns="http://www.w3.org/2000/svg" width="985" height="376">
<path d="M0 0 C325.05 0 650.1 0 985 0 C985 124.08 985 248.16 985 376 C659.95 376 334.9 376 0 376 C0 251.92 0 127.84 0 0 Z " fill="#FEFEFE" transform="translate(0,0)"/>
<path d="M0 0 C0.98312164 -0.0065712 1.96624329 -0.0131424 2.97915649 -0.01991272 C6.22682791 -0.03958676 9.47445297 -0.05130144 12.72216797 -0.0612793 C13.83908901 -0.06535482 14.95601006 -0.06943035 16.10677719 -0.07362938 C22.03016726 -0.09447503 27.95353434 -0.10877767 33.87695312 -0.11816406 C39.9440875 -0.12916512 46.01084871 -0.16349612 52.07785225 -0.20333576 C56.78474524 -0.22971622 61.49155265 -0.23787522 66.19851303 -0.24144554 C68.43162401 -0.24626424 70.66473242 -0.2577401 72.89776993 -0.27648354 C91.33230035 -0.42147574 109.34312042 0.75463079 126.08935547 9.17700195 C127.00716797 9.61786133 127.92498047 10.0587207 128.87060547 10.51293945 C136.06404642 14.17027881 142.08264795 18.81542702 148.08935547 24.17700195 C148.94658203 24.93883789 149.80380859 25.70067383 150.68701172 26.4855957 C167.5235984 42.33332567 178.53751317 66.20698875 179.27048111 89.32126617 C179.35990447 94.23830763 179.33720202 99.15493593 179.31640625 104.07250977 C179.31584114 105.95602919 179.31616064 107.83954906 179.31729126 109.72306824 C179.31786188 114.80281337 179.30615497 119.88246283 179.29214334 124.96218586 C179.27958719 130.28327758 179.27846165 135.60437182 179.27609253 140.92547607 C179.26989206 150.98677375 179.25350074 161.04802764 179.23339355 171.1093061 C179.21098981 182.57006151 179.20002989 194.03081909 179.19000268 205.49159098 C179.16913317 229.05342446 179.13247494 252.61519796 179.08935547 276.17700195 C154.66935547 276.17700195 130.24935547 276.17700195 105.08935547 276.17700195 C104.75935547 269.24700195 104.42935547 262.31700195 104.08935547 255.17700195 C104.10350839 249.68957486 104.10350839 249.68957486 102.08935547 245.17700195 C101.94820386 242.50641344 102.0468844 239.85267958 102.08935547 237.17700195 C100.99236328 236.63430664 99.89537109 236.09161133 98.76513672 235.5324707 C97.31065608 234.80992226 95.85623197 234.08725999 94.40185547 233.36450195 C93.680625 233.00807617 92.95939453 232.65165039 92.21630859 232.28442383 C91.51054688 231.9331543 90.80478516 231.58188477 90.07763672 231.2199707 C89.38702148 230.87643555 88.69640625 230.53290039 87.98486328 230.17895508 C86.08935547 229.17700195 86.08935547 229.17700195 83.34326172 227.3449707 C81.18923025 225.96066395 81.18923025 225.96066395 78.94091797 226.43481445 C78.20615234 226.72098633 77.47138672 227.0071582 76.71435547 227.30200195 C52.79841476 235.32026364 25.6494745 235.44964733 2.71435547 224.48950195 C-4.10484963 221.00609848 -9.60217825 216.72271812 -14.91064453 211.17700195 C-15.53068359 210.58790039 -16.15072266 209.99879883 -16.78955078 209.3918457 C-24.89651113 201.13979435 -32.91064453 185.80408385 -32.91064453 174.17700195 C-35.63747832 175.90432016 -38.36186158 177.63527899 -41.08251953 179.37231445 C-43.14590686 180.68900637 -45.21431876 181.99783387 -47.28564453 183.30200195 C-51.16816613 186.07523167 -54.28740371 189.52076603 -57.56689453 192.97387695 C-64.81455847 200.5511537 -72.82166777 208.3650084 -82.72705078 212.29418945 C-85.08059976 212.96558149 -85.08059976 212.96558149 -85.91064453 215.17700195 C-86.90064453 214.84700195 -87.89064453 214.51700195 -88.91064453 214.17700195 C-90.04345703 211.26293945 -90.04345703 211.26293945 -91.03564453 207.55200195 C-91.53451172 205.73829102 -91.53451172 205.73829102 -92.04345703 203.88793945 C-93.69531954 196.81915846 -94.05936848 190.07813574 -94.0559082 182.8581543 C-94.05926682 181.84413544 -94.06262543 180.83011658 -94.06608582 179.78536987 C-94.07555706 176.44454714 -94.07753722 173.10377476 -94.07861328 169.76293945 C-94.08182928 167.42754089 -94.08519361 165.09214253 -94.08869934 162.75674438 C-94.09468159 157.86280857 -94.09654024 152.96889039 -94.09594727 148.07495117 C-94.09584587 141.83127906 -94.10947876 135.58772124 -94.12671947 129.34407616 C-94.13788924 124.51908864 -94.13986492 119.69412829 -94.13933754 114.86912918 C-94.1405109 112.56885002 -94.14489618 110.26857 -94.15266991 107.96830368 C-94.23882151 79.83515079 -89.71919198 53.63334007 -69.91064453 32.17700195 C-69.02763672 31.2024707 -68.14462891 30.22793945 -67.23486328 29.22387695 C-49.79189924 10.56019958 -25.53073171 0.07466107 0 0 Z " fill="#6FBCD6" transform="translate(765.91064453125,50.822998046875)"/>
<path d="M0 0 C97.02 0 194.04 0 294 0 C294 97.35 294 194.7 294 295 C196.98 295 99.96 295 0 295 C0 197.65 0 100.3 0 0 Z M63 19 C61.30617188 19.84691406 61.30617188 19.84691406 59.578125 20.7109375 C50.82498224 25.30276976 44.00158261 31.08226868 37 38 C36.34515625 38.58265625 35.6903125 39.1653125 35.015625 39.765625 C19.91054707 53.48491597 10.62864205 77.13946208 9 97 C8.86077705 100.51053838 8.84305908 104.01699752 8.83886719 107.5300293 C8.83390228 108.54273392 8.82893738 109.55543854 8.82382202 110.59883118 C8.8093081 113.92396748 8.80241645 117.24905608 8.796875 120.57421875 C8.79404762 121.7179426 8.79122025 122.86166645 8.78830719 124.0400486 C8.77335822 130.09270073 8.76410165 136.14532929 8.75976562 142.19799805 C8.7542874 148.41690107 8.73026042 154.63558447 8.70179367 160.85441875 C8.68307648 165.66657625 8.67795687 170.47868177 8.67642975 175.29087257 C8.67342318 177.58196017 8.66546306 179.8730473 8.65224457 182.16409874 C8.5713689 197.25871369 9.06848898 210.87735472 15 225 C15.66 225 16.32 225 17 225 C17.495 224.01 17.495 224.01 18 223 C18.69738281 222.731875 19.39476562 222.46375 20.11328125 222.1875 C23.89328243 220.63253335 26.91304852 218.42059033 30.1875 216 C30.84951416 215.51305664 31.51152832 215.02611328 32.19360352 214.52441406 C37.99478886 210.16876767 42.98468497 205.23141478 48 200 C54.57648626 193.53199186 62.19794285 188.83245394 70 184 C70.18175781 185.54107422 70.18175781 185.54107422 70.3671875 187.11328125 C72.99129821 203.23050444 82.36304583 217.87574253 95 228 C109.9594435 238.66365736 126.0633787 242.39140806 144.1875 242.3125 C145.47309814 242.30903564 146.75869629 242.30557129 148.08325195 242.30200195 C157.74785975 242.19119597 167.61994218 241.96496552 176.546875 237.81640625 C179.92614159 236.30898831 182.29023699 235.3492693 185.89746094 236.72216797 C190.20441378 238.82745471 194.22101853 241.35278464 198.24853516 243.94287109 C200.40654449 245.24537743 202.62099006 246.17631958 205 247 C204.96744792 249.05078125 204.93489583 251.1015625 204.90234375 253.15234375 C204.79438816 255.01732141 204.79438816 255.01732141 206 256 C207.10676657 265.96089917 207.52329267 275.98914616 208 286 C232.42 286 256.84 286 282 286 C282.06785154 261.37302186 282.12305998 236.74612 282.15543652 212.11907196 C282.17087241 200.68302553 282.19189897 189.24704151 282.22631836 177.81103516 C282.25632137 167.83759311 282.27559879 157.86419629 282.28226548 147.89071035 C282.28615934 142.61511729 282.29524141 137.33965358 282.31719017 132.06410217 C282.33772795 127.08682003 282.34379926 122.1097191 282.33932304 117.13239861 C282.34014058 115.31691944 282.3460023 113.50143348 282.35761642 111.68599129 C282.45589686 95.51440186 280.65848263 80.9673584 274 66 C273.55785156 64.99324219 273.11570312 63.98648438 272.66015625 62.94921875 C262.86836236 42.03655092 244.6058084 24.44168052 223 16 C211.02805343 12.19532313 199.50883455 9.85976001 186.9440918 9.82299805 C185.95761154 9.81642685 184.97113129 9.80985565 183.95475769 9.80308533 C180.70291043 9.78344338 177.45110931 9.77170613 174.19921875 9.76171875 C173.08071848 9.75764322 171.96221821 9.7535677 170.80982399 9.74936867 C164.88225111 9.72854038 158.95470111 9.71422817 153.02709961 9.70483398 C146.94970889 9.69381415 140.87268877 9.65945586 134.79542828 9.61966228 C130.08432914 9.59332108 125.37331571 9.58512642 120.66214943 9.58155251 C118.4245944 9.57672674 116.18704213 9.56522972 113.94956017 9.54651451 C95.97776836 9.40560855 79.33983226 10.83008387 63 19 Z " fill="#E1E1E1" transform="translate(663,41)"/>
<path d="M0 0 C2.04749877 0.00849585 4.09217962 -0.02034763 6.1394043 -0.05200195 C26.50339915 -0.15945642 47.1566199 7.29568115 62.15307617 21.26245117 C76.093942 35.80152579 80.73953316 54.34939021 80.64526367 73.96948242 C80.64729371 75.32744502 80.65021278 76.68540654 80.65396118 78.04336548 C80.65834402 80.86877983 80.65208815 83.69390663 80.63793945 86.51928711 C80.62088279 90.09478977 80.6306919 93.66961468 80.64865685 97.24509239 C80.6596339 100.04398461 80.65598513 102.84272312 80.64827347 105.64162064 C80.6453697 107.58598533 80.65429368 109.53035665 80.66366577 111.47470093 C80.4914732 133.65710133 73.63572851 153.27598003 58.24682617 169.44604492 C66.15796773 176.20437897 74.96644818 178.99249883 85.24682617 179.44604492 C85.24682617 185.71604492 85.24682617 191.98604492 85.24682617 198.44604492 C72.50989295 198.2666515 61.5468873 193.1998457 50.8605957 186.58178711 C45.11072941 182.81583747 45.11072941 182.81583747 38.55151367 181.43823242 C36.00180314 182.25447639 33.67392093 183.31811592 31.24682617 184.44604492 C8.49972973 191.47088353 -18.04906356 189.50458393 -39.15844727 178.72143555 C-45.16016512 175.44668276 -50.02555713 171.38495176 -54.75317383 166.44604492 C-55.37321289 165.85694336 -55.99325195 165.2678418 -56.63208008 164.66088867 C-67.75370034 153.34022375 -73.84341785 135.57549161 -73.8984375 119.99853516 C-73.90481735 118.76292343 -73.9111972 117.52731171 -73.91777039 116.2542572 C-73.91888321 114.93438309 -73.91999603 113.61450897 -73.92114258 112.25463867 C-73.92436347 110.863286 -73.92772814 109.47193366 -73.93122864 108.08058167 C-73.93719813 105.16813372 -73.93907098 102.25571534 -73.93847656 99.34326172 C-73.9383755 95.65105779 -73.95197961 91.95904858 -73.96924877 88.26689053 C-73.9804935 85.39172027 -73.98239193 82.51659508 -73.98186684 79.64140511 C-73.98358784 77.63107494 -73.99435384 75.62075884 -74.00541687 73.61045837 C-73.95523559 53.09715738 -69.57596311 36.02187811 -55.30004883 20.83666992 C-40.0108424 6.50904881 -20.74960569 -0.13059365 0 0 Z " fill="#03080E" transform="translate(805.753173828125,95.553955078125)"/>
<path d="M0 0 C26.53848033 19.22788009 41.22498678 49.27687608 46.796875 81.0625 C47.3699485 85.03794696 47.7837486 88.99403748 48.04296875 93 C48.09356445 93.76924805 48.14416016 94.53849609 48.19628906 95.33105469 C49.42896272 117.51031237 43.5860019 137.96157556 29.04296875 155 C13.10117168 169.02337742 -4.27034144 171.60988586 -24.5625 170.91015625 C-44.11783828 169.44973937 -62.12506038 156.36795995 -74.6171875 141.97265625 C-96.09438157 114.68693891 -106.55827139 79.10629437 -102.68017578 44.53173828 C-100.17769842 27.97279231 -91.94796819 10.56630405 -78.42163086 0.36523438 C-54.55001217 -16.65215717 -24.04961063 -16.26605105 0 0 Z " fill="#FDFDFD" transform="translate(150.95703125,90)"/>
<path d="M0 0 C1.51787109 0.52787109 1.51787109 0.52787109 3.06640625 1.06640625 C15.41346107 5.74870614 25.53525598 14.17798691 31.875 25.875 C36.2490546 35.66514132 36.30828303 45.86805893 36.30078125 56.43359375 C36.3046818 57.80160143 36.30901918 59.16960792 36.31376648 60.53761292 C36.32117319 63.38750151 36.32097783 66.23726609 36.31567383 69.0871582 C36.30988094 72.7055768 36.32683261 76.32348321 36.3500185 79.94181728 C36.36488072 82.76201755 36.36561086 85.58209789 36.36250877 88.4023304 C36.36325858 90.3739918 36.37702138 92.34563485 36.39118958 94.31724548 C36.30830235 110.61708152 31.83938032 124.85788413 20.42578125 136.80859375 C11.19848364 145.14436502 -1.56137889 150.22903977 -14 150 C-13.74960819 142.10013843 -12.9098502 134.62524832 -11.125 126.9375 C-10.88281738 125.86737671 -10.88281738 125.86737671 -10.63574219 124.77563477 C-9.64684554 120.72355873 -8.70832262 117.20752616 -6 114 C-3.41864946 112.84564324 -1.05308551 111.95379958 1.625 111.125 C14.15453974 106.8212168 21.83342766 99.66284402 27.75 87.8125 C30.40614294 81.73155539 31.30111406 75.56118293 32 69 C17.64274205 70.58901944 5.5430415 73.1141848 -4 85 C-9.23056218 93.22469241 -11.39504451 101.48289552 -13 111 C-13.33 111 -13.66 111 -14 111 C-14.17390259 109.91114502 -14.17390259 109.91114502 -14.35131836 108.80029297 C-14.87983799 105.49182878 -15.40866613 102.18341397 -15.9375 98.875 C-16.11990234 97.73289062 -16.30230469 96.59078125 -16.49023438 95.4140625 C-16.66748047 94.30546875 -16.84472656 93.196875 -17.02734375 92.0546875 C-17.18968506 91.03874512 -17.35202637 90.02280273 -17.51928711 88.97607422 C-17.85482524 86.89877114 -18.24153702 84.82937237 -18.66674805 82.76855469 C-19 80 -19 80 -17.3046875 77.6484375 C-16.50289062 76.89820313 -15.70109375 76.14796875 -14.875 75.375 C-6.28760792 66.56021592 -3.72172462 56.08264854 -3.67871094 44.11767578 C-3.82731123 34.04297735 -7.27531689 25.7744115 -12 17 C-21.40356639 24.29256169 -27.58765545 33.22546113 -30 45 C-31.44249282 59.49049605 -26.57030175 72.74291713 -22.4296875 86.43945312 C-20.39782359 93.27509875 -18.82701218 99.75579146 -18.9375 106.9375 C-18.94652344 107.70964844 -18.95554687 108.48179687 -18.96484375 109.27734375 C-18.97644531 109.84582031 -18.98804688 110.41429687 -19 111 C-24.22280417 106.49758261 -25.74374246 101.13962478 -27.375 94.6875 C-30.26417701 83.87160658 -35.07281745 75.21363794 -44.83203125 69.27734375 C-52.93551221 65.04356102 -60.99076873 62.41499454 -70 61 C-68.76267837 74.51820048 -66.07491594 87.10218219 -56 97 C-49.03062187 102.40852782 -40.50793066 105.76491827 -31.859375 107.40625 C-28.15904647 108.11413894 -26.39974085 109.30108926 -24.3125 112.3125 C-17.62819119 124.72937829 -17.50641624 136.24820803 -18 150 C-30.36262362 150.56982735 -40.82586308 150.91664272 -52 145 C-53.31484375 144.34837891 -53.31484375 144.34837891 -54.65625 143.68359375 C-66.53974271 137.24670187 -74.77383844 127.42448152 -78.76593018 114.52510071 C-80.93355799 106.63270902 -81.42539093 99.31832552 -81.36328125 91.16015625 C-81.36377975 89.87620468 -81.36427826 88.59225311 -81.36479187 87.26939392 C-81.36470295 84.57083108 -81.35444178 81.87257193 -81.33618164 79.17407227 C-81.31352047 75.75426797 -81.31295514 72.33490638 -81.31969929 68.91504765 C-81.32388851 65.60086897 -81.31183387 62.28681989 -81.30078125 58.97265625 C-81.30169266 57.76497086 -81.30260406 56.55728546 -81.30354309 55.31300354 C-81.16419827 38.3330307 -78.45207795 24.84691495 -66.4296875 12.2578125 C-49.22470842 -3.7300941 -22.03842451 -8.05810235 0 0 Z " fill="#A0B9C1" transform="translate(831,116)"/>
<path d="M0 0 C0.27972656 1.00417969 0.55945313 2.00835937 0.84765625 3.04296875 C4.90222616 17.08891069 10.46922393 28.5834819 21 39 C21.51691406 39.55042969 22.03382813 40.10085938 22.56640625 40.66796875 C37.38521867 55.09986701 58.87194047 57.55216792 78.40429688 57.40942383 C87.93061746 57.20257297 97.75662332 56.90144652 106.546875 52.81640625 C109.9114228 51.31555405 112.28529751 50.35648591 115.88134766 51.70605469 C120.16855435 53.78158312 124.16936822 56.27875558 128.16601562 58.86035156 C130.68823175 60.42767117 133.3199174 61.7265446 136 63 C135.96744792 65.05078125 135.93489583 67.1015625 135.90234375 69.15234375 C135.79438816 71.01732141 135.79438816 71.01732141 137 72 C137.96904737 78.71556603 138.12379784 85.28673144 138.0625 92.0625 C138.05798828 93.02349609 138.05347656 93.98449219 138.04882812 94.97460938 C138.03717706 97.31647422 138.02082025 99.65820181 138 102 C122.49995616 102.09386721 106.99993387 102.16418522 91.49967194 102.20724869 C84.30095357 102.22778442 77.10241285 102.2557305 69.90380859 102.30175781 C63.62200555 102.34190367 57.34033128 102.36749794 51.05840349 102.37635398 C47.73882411 102.38152252 44.41990191 102.39564772 41.10038757 102.42292023 C27.18305352 102.53263336 14.27009827 102.57355866 1 98 C-0.09824097 97.62200256 -1.19648193 97.24400513 -2.32800293 96.85455322 C-26.89394312 87.90227368 -44.24508953 65.8996863 -55 43 C-55 42.34 -55 41.68 -55 41 C-54.34 41 -53.68 41 -53 41 C-52.67 40.01 -52.34 39.02 -52 38 C-50.34148846 37.31329651 -48.67253194 36.65181218 -47 36 C-44.51117731 34.45982511 -42.16523104 32.73922198 -39.8125 31 C-39.15048584 30.51305664 -38.48847168 30.02611328 -37.80639648 29.52441406 C-32.00439628 25.16815586 -27.02052238 20.22709128 -22 15 C-6.47530864 0 -6.47530864 0 0 0 Z " fill="#D1C8B0" transform="translate(733,225)"/>
<path d="M0 0 C2.45252333 2.16529086 4.81527447 4.3951617 7.1640625 6.671875 C8.08058594 7.47818359 8.08058594 7.47818359 9.015625 8.30078125 C24.32618447 22.24807172 32.33763283 44.81242842 33.9140625 65.046875 C34.02093047 67.58766093 34.10310821 70.1295732 34.1640625 72.671875 C34.20273437 73.73559326 34.20273437 73.73559326 34.2421875 74.82080078 C35.1460527 100.6205032 28.00977003 125.03725037 10.4765625 144.484375 C-3.05938619 158.82128024 -20.18693691 167.00404149 -38.8359375 172.671875 C-26.01181126 183.19029362 -12.16525946 191.27782627 3.1640625 197.671875 C3.94265625 198.0121875 4.72125 198.3525 5.5234375 198.703125 C16.48266502 202.78449249 30.85828062 202.14791013 41.640625 197.96484375 C44.95582899 196.2661866 47.76179454 194.21625493 50.54296875 191.74609375 C51.07792969 191.39160156 51.61289063 191.03710938 52.1640625 190.671875 C53.1540625 191.001875 54.1440625 191.331875 55.1640625 191.671875 C47.77314354 203.51515479 36.5720722 213.94111253 23.5390625 219.109375 C10.75141252 221.24065 -0.16720662 216.69935245 -10.8359375 209.671875 C-23.45610751 200.27731957 -36.29861766 187.95904915 -44.8359375 174.671875 C-44.8359375 174.011875 -44.8359375 173.351875 -44.8359375 172.671875 C-45.36807861 172.83413574 -45.90021973 172.99639648 -46.44848633 173.16357422 C-49.35939035 173.78332084 -52.05814362 173.80162045 -55.03515625 173.8046875 C-56.84983398 173.80662109 -56.84983398 173.80662109 -58.70117188 173.80859375 C-59.96251953 173.80472656 -61.22386719 173.80085937 -62.5234375 173.796875 C-63.76544922 173.80074219 -65.00746094 173.80460938 -66.28710938 173.80859375 C-76.15572526 173.79813417 -85.01997405 173.33647727 -94.3984375 170.171875 C-95.16929688 169.91196777 -95.94015625 169.65206055 -96.734375 169.38427734 C-109.00873383 165.03752711 -120.15793925 158.3873237 -129.8359375 149.671875 C-130.85880859 148.77082031 -130.85880859 148.77082031 -131.90234375 147.8515625 C-150.2503124 130.68849202 -159.01636614 104.80995546 -160.0546875 80.17578125 C-160.73636363 54.85527113 -153.82108868 29.88340964 -136.8359375 10.671875 C-136.38089844 10.07503906 -135.92585938 9.47820312 -135.45703125 8.86328125 C-122.5879822 -7.77044483 -100.36422454 -17.15763737 -80.2109375 -20.640625 C-51.37257259 -24.06827066 -22.79458881 -18.71291313 0 0 Z M-119.8203125 2.7109375 C-135.98709724 21.44686245 -139.28778071 43.71025759 -137.8359375 67.671875 C-135.61612002 97.27536097 -121.77014842 128.51742889 -99.8359375 148.671875 C-82.71474539 163.19263686 -63.21152216 169.24238773 -40.8359375 167.671875 C-26.41861013 165.48951436 -13.74368869 159.36181708 -3.8359375 148.671875 C-3.35382813 148.17171875 -2.87171875 147.6715625 -2.375 147.15625 C8.79689342 135.02028456 13.60125357 116.32460137 13.4140625 100.109375 C13.40656982 99.23804932 13.39907715 98.36672363 13.39135742 97.46899414 C12.85871111 64.90020178 1.49458736 32.63973944 -20.8359375 8.671875 C-21.40441406 8.011875 -21.97289062 7.351875 -22.55859375 6.671875 C-32.9391732 -4.7972051 -50.25776987 -14.10204809 -65.79614258 -15.50512695 C-85.71785325 -16.0979366 -105.35058166 -12.15756545 -119.8203125 2.7109375 Z " fill="#040404" transform="translate(185.8359375,93.328125)"/>
<path d="M0 0 C1.01126953 -0.01160156 2.02253906 -0.02320312 3.06445312 -0.03515625 C14.72187524 0.00988208 26.09387922 3.38199875 35.01171875 11.19140625 C46.61945888 23.65524869 48.37866584 39.10651697 48.34819031 55.36954308 C48.34365054 58.00700264 48.3578811 60.64381281 48.37658691 63.28120422 C48.41925778 69.82342382 48.43060107 76.36562467 48.44281006 82.90795898 C48.45438137 88.45932334 48.47804604 94.01038624 48.51750183 99.56162453 C48.53097095 102.14568297 48.52692181 104.72932114 48.52209473 107.31340027 C48.36860826 120.37334118 48.36860826 120.37334118 53.9375 131.875 C55.96385231 133.5594662 55.96385231 133.5594662 58.9375 134.375 C58.9375 135.695 58.9375 137.015 58.9375 138.375 C54.35449875 138.52005993 49.77208637 138.60899681 45.1875 138.6875 C43.23457031 138.7503418 43.23457031 138.7503418 41.2421875 138.81445312 C39.99179687 138.83056641 38.74140625 138.84667969 37.453125 138.86328125 C36.30102539 138.88946533 35.14892578 138.91564941 33.96191406 138.94262695 C30.9375 138.375 30.9375 138.375 28.56835938 136.53125 C26.15576131 131.86207817 26.33434741 127.57342622 26.328125 122.38671875 C26.31158875 121.32838333 26.29505249 120.27004791 26.27801514 119.17964172 C26.22952195 115.80720218 26.20816054 112.43521365 26.1875 109.0625 C26.15934154 106.77276375 26.12941429 104.48304853 26.09765625 102.19335938 C26.02376271 96.58732149 25.97212784 90.98141052 25.9375 85.375 C25.54715576 86.44588867 25.15681152 87.51677734 24.75463867 88.62011719 C24.22598133 90.05412224 23.69707818 91.48803669 23.16796875 92.921875 C22.91269409 93.62425293 22.65741943 94.32663086 22.39440918 95.05029297 C17.64719966 107.86221717 10.5895131 117.85381237 0.9375 127.375 C-0.00609375 128.31666016 -0.00609375 128.31666016 -0.96875 129.27734375 C-8.85507178 136.58707125 -20.23975693 141.41551913 -31 141.6875 C-43.75084865 141.18864051 -53.72459642 137.72204971 -62.59765625 128.22265625 C-69.12943596 119.98390478 -71.1860844 109.68388687 -70.0625 99.375 C-67.13381029 87.16103267 -60.35124701 79.25366524 -49.91259766 72.48193359 C-33.50562468 62.66546283 -14.23667617 57.98980193 4.16796875 53.54296875 C9.83385034 52.17202469 15.44916286 50.63080427 21.06640625 49.07421875 C23.9375 48.375 23.9375 48.375 26.9375 48.375 C23.92060923 30.54496711 23.92060923 30.54496711 13.046875 16.7265625 C1.11363806 9.08045142 -11.81029013 8.59402707 -25.4375 11.4375 C-36.99236519 14.86884809 -46.65855296 22.26299984 -54.65234375 31.140625 C-56.0625 32.375 -56.0625 32.375 -59.0625 32.375 C-58.6004947 28.05268379 -55.82199432 25.59861787 -52.875 22.6875 C-52.34543701 22.16220703 -51.81587402 21.63691406 -51.27026367 21.09570312 C-37.18124076 7.58731127 -19.56269546 -0.22529016 0 0 Z " fill="#050505" transform="translate(565.0625,126.625)"/>
<path d="M0 0 C0.00808685 1.20110413 0.01617371 2.40220825 0.02450562 3.63970947 C0.10222102 14.99692702 0.19002309 26.35402851 0.28752708 37.7110939 C0.33732708 43.54890854 0.38365783 49.38670651 0.421875 55.22460938 C0.45893454 60.86570862 0.50534894 66.50666252 0.55806351 72.14763641 C0.57649818 74.29241112 0.59164577 76.43721685 0.60334396 78.58203888 C0.3273514 101.37755628 0.3273514 101.37755628 9 122 C16.37510738 128.71045299 23.35371904 129.46977193 33.05078125 129.2734375 C46.97694651 128.30921241 60.66690923 120.06617971 70.45291138 110.35055542 C75.39259635 104.632999 74.52945126 97.25539014 74.27734375 90.16015625 C74.2625302 88.54556435 74.25266085 86.93092037 74.24745178 85.31626892 C74.22465169 81.94685562 74.16341174 78.58132258 74.07006836 75.21313477 C73.95144278 70.92868775 73.89724142 66.64675061 73.86814022 62.36084843 C73.83799454 58.23112253 73.77861678 54.10198062 73.71484375 49.97265625 C73.70465651 49.20190325 73.69446926 48.43115025 73.68397331 47.63704109 C73.98483334 31.62213283 73.98483334 31.62213283 67.4375 17.8125 C65.15374754 16.00402581 65.15374754 16.00402581 63 15 C63 13.68 63 12.36 63 11 C66.74585457 9.25533974 70.49944179 7.52869603 74.26098633 5.81811523 C75.53861031 5.23410944 76.81404331 4.6452849 78.0871582 4.05151367 C79.92071325 3.19738201 81.76302317 2.36212473 83.60546875 1.52734375 C85.26292114 0.76538696 85.26292114 0.76538696 86.95385742 -0.01196289 C90.26546002 -1.08610377 91.70105934 -0.80237905 95 0 C95.00496522 0.89065312 95.00496522 0.89065312 95.01003075 1.79929924 C95.09143566 16.28181187 95.18358461 30.76422711 95.28752708 45.24659538 C95.33753791 52.25031246 95.38398159 59.25401851 95.421875 66.2578125 C95.45847466 73.02059842 95.50521705 79.78325455 95.55806351 86.54593277 C95.57655351 89.12219186 95.59168123 91.69847741 95.60334396 94.27477646 C95.62029868 97.89148291 95.64935632 101.50790939 95.68115234 105.12451172 C95.68331253 106.18259537 95.68547272 107.24067902 95.68769836 108.33082581 C95.67789148 119.92262776 95.67789148 119.92262776 100.4375 130.0625 C102.91245869 132.14855107 102.91245869 132.14855107 106 133 C106 134.32 106 135.64 106 137 C101.60451509 137.14536813 97.20964913 137.23409948 92.8125 137.3125 C90.94368164 137.3753418 90.94368164 137.3753418 89.03710938 137.43945312 C79.98371982 137.56081223 79.98371982 137.56081223 75.65625 135.09375 C73.31002276 130.7111746 73.45070083 127.07284906 73.6875 122.1875 C73.71005859 121.30384766 73.73261719 120.42019531 73.75585938 119.50976562 C73.81452572 117.3391109 73.90420021 115.1693331 74 113 C73.51998535 113.4345752 73.0399707 113.86915039 72.54541016 114.31689453 C56.47694264 128.76447972 39.12323361 140.87592078 16.5703125 140.35546875 C3.82145705 139.08616257 -4.67272894 134.22581843 -12.98046875 124.73828125 C-15.16145408 121.78108451 -16.39486151 119.05844355 -17.6875 115.625 C-18.31205078 114.00464844 -18.31205078 114.00464844 -18.94921875 112.3515625 C-20.77443299 106.52987544 -21.1257288 100.82799415 -21.15771484 94.75463867 C-21.16533592 93.72381416 -21.16533592 93.72381416 -21.17311096 92.67216492 C-21.1837416 91.19193444 -21.19238986 89.71168862 -21.19923019 88.23143578 C-21.21113014 85.87990122 -21.23060979 83.52854135 -21.25234985 81.17707825 C-21.3135966 74.49530941 -21.36791289 67.81356251 -21.40136719 61.1315918 C-21.42243536 57.03199197 -21.45782876 52.93271898 -21.50212479 48.83330727 C-21.51618248 47.28139427 -21.52498382 45.72942355 -21.52817917 44.17745018 C-21.32856694 31.71810666 -21.32856694 31.71810666 -25 20 C-27.19694983 18.02863035 -29.50282452 16.60196163 -32 15 C-32 13.68 -32 12.36 -32 11 C-28.25414543 9.25533974 -24.50055821 7.52869603 -20.73901367 5.81811523 C-19.46138969 5.23410944 -18.18595669 4.6452849 -16.9128418 4.05151367 C-15.07928675 3.19738201 -13.23697683 2.36212473 -11.39453125 1.52734375 C-10.28956299 1.01937256 -9.18459473 0.51140137 -8.04614258 -0.01196289 C-4.73453998 -1.08610377 -3.29894066 -0.80237905 0 0 Z " fill="#030303" transform="translate(273,128)"/>
<path d="M0 0 C0.33 10.23 0.66 20.46 1 31 C3.31 27.37 5.62 23.74 8 20 C16.06216303 9.75148768 26.49700726 1.41640801 39.6953125 -0.55078125 C44.00851925 -1.05309261 48.28518185 -1.21877829 52.625 -1.25 C53.34945312 -1.270625 54.07390625 -1.29125 54.8203125 -1.3125 C59.62692371 -1.34733052 62.80916841 -0.59252645 67 2 C69 4 69 4 69.0625 7.625 C68.24099473 13.04891433 64.98094958 16.43675177 61 20 C55.54928432 23.35428657 48.92923486 22.33169968 42.94140625 20.9765625 C41.14613734 20.5352967 39.35316107 20.08460731 37.5625 19.625 C35.77228966 19.17906781 33.98192624 18.73374972 32.19140625 18.2890625 C31.33047363 18.07282227 30.46954102 17.85658203 29.58251953 17.63378906 C25.73552546 16.68967896 21.87039427 15.84258838 18 15 C9.68047274 22.96550483 1.3633676 35.32615877 0.86628723 47.19181824 C0.86056953 49.08303154 0.86056953 49.08303154 0.85473633 51.01245117 C0.85137772 51.71058929 0.8480191 52.40872742 0.84455872 53.12802124 C0.83507136 55.43302194 0.83310639 57.73794975 0.83203125 60.04296875 C0.82881596 61.65236948 0.82545168 63.26176992 0.82194519 64.87117004 C0.81595862 68.24623288 0.81410469 71.62127012 0.81469727 74.99633789 C0.81479859 79.30229765 0.80117491 83.60809142 0.78392506 87.91401196 C0.77275369 91.24020629 0.77077967 94.56636124 0.77130699 97.8925724 C0.77013351 99.47885012 0.76574754 101.06512907 0.75797462 102.65138817 C0.20152156 117.66995035 0.20152156 117.66995035 6 131 C8.57099402 132.34689915 8.57099402 132.34689915 11 133 C11 134.32 11 135.64 11 137 C-3.19 137 -17.38 137 -32 137 C-32 135.68 -32 134.36 -32 133 C-30.34928604 131.97388051 -28.68029994 130.97691857 -27 130 C-22.0905058 123.63584085 -21.70060439 115.7876286 -21.70947266 108.06469727 C-21.70275543 107.20991791 -21.69603821 106.35513855 -21.68911743 105.47445679 C-21.67024596 102.67171284 -21.66621913 99.86920962 -21.6640625 97.06640625 C-21.65762837 95.10399785 -21.65089956 93.14159039 -21.64389038 91.17918396 C-21.63194573 87.07475562 -21.62820679 82.97041128 -21.62939453 78.8659668 C-21.62959786 73.62280882 -21.602268 68.38019195 -21.56785011 63.13716221 C-21.54554965 59.08694512 -21.54155791 55.0368578 -21.54261398 50.98658562 C-21.54026384 49.05419992 -21.53147359 47.12181032 -21.51594925 45.18948555 C-21.49621984 42.48084273 -21.50215364 39.7733612 -21.51416016 37.06469727 C-21.50292114 36.27740738 -21.49168213 35.49011749 -21.48010254 34.67897034 C-21.54492224 28.88643875 -22.90191078 23.94485753 -26 19 C-27.95851344 17.60644236 -29.95127113 16.25717453 -32 15 C-32 13.68 -32 12.36 -32 11 C-28.25414543 9.25533974 -24.50055821 7.52869603 -20.73901367 5.81811523 C-19.46138969 5.23410944 -18.18595669 4.6452849 -16.9128418 4.05151367 C-15.07928675 3.19738201 -13.23697683 2.36212473 -11.39453125 1.52734375 C-10.28956299 1.01937256 -9.18459473 0.51140137 -8.04614258 -0.01196289 C-5 -1 -5 -1 0 0 Z " fill="#020202" transform="translate(429,128)"/>
<path d="M0 0 C9.43330404 -0.09360079 18.86644283 -0.16421364 28.30011368 -0.20724869 C32.68282992 -0.22792656 37.06522336 -0.25587069 41.44775391 -0.30175781 C87.57059033 -0.77185016 87.57059033 -0.77185016 107 9 C107.9178125 9.44085938 108.835625 9.88171875 109.78125 10.3359375 C116.97469095 13.99327686 122.99329248 18.63842507 129 24 C129.85722656 24.76183594 130.71445312 25.52367188 131.59765625 26.30859375 C148.14520392 41.88426072 159.28352271 65.46405253 160.1171875 88.1953125 C160.12385128 90.8008507 160.09225777 93.3962806 160 96 C157.05734709 93.23044432 154.62167559 90.52309037 152.3203125 87.19921875 C149.09475633 82.85509891 145.39765415 79.90821707 141 76.8125 C139.62390781 75.82052377 138.24889121 74.82705361 136.875 73.83203125 C135.89140503 73.12022705 135.89140503 73.12022705 134.88793945 72.39404297 C130.84234487 69.40680062 127.06510218 66.52979343 124.3125 62.25 C120.40722445 56.8254397 115.22944783 53.08169522 110 49 C109.19433594 48.31808594 108.38867188 47.63617188 107.55859375 46.93359375 C96.92338832 37.98039774 85.06192009 32.34441009 72.28393555 27.14477539 C68.62996954 25.64367737 65.35211308 24.23928646 62.07421875 22.01171875 C57.61509583 19.09374124 52.787683 17.4245756 47.8125 15.5625 C40.91598096 12.95755247 34.14293937 10.23747469 27.46704102 7.10424805 C19.94150085 3.73581478 12.9066191 2.62844155 4.6875 2.30859375 C2 2 2 2 0 0 Z " fill="#03A0D2" transform="translate(785,51)"/>
<path d="M0 0 C0.70235041 20.26411005 -3.91486711 39.41873947 -16 56 C-16.42023437 56.59167969 -16.84046875 57.18335938 -17.2734375 57.79296875 C-22.9387938 65.18834996 -31.8927475 70.99548283 -41 73 C-59.90700488 74.17686459 -59.90700488 74.17686459 -66 69 C-73.53951029 62.05935102 -76.08993158 55.83744785 -76.5625 45.6875 C-76.34946797 36.37892644 -73.14417994 29.7223477 -66.5 23.25 C-54.1401179 13.41398696 -38.48239186 9.51753758 -23.45288086 5.8659668 C-17.35548131 4.37680424 -11.39760073 2.66136929 -5.43359375 0.69921875 C-3 0 -3 0 0 0 Z " fill="#FDFDFD" transform="translate(592,178)"/>
<path d="M0 0 C0.3660964 5.56184912 -0.50728425 8.79643741 -3.25 13.625 C-3.85328125 14.71039063 -4.4565625 15.79578125 -5.078125 16.9140625 C-10.79947047 26.10077575 -18.81398137 31.42451266 -29.125 34.58984375 C-31 35 -31 35 -34 35 C-33.12367946 23.16967273 -28.68364876 15.09419578 -20 7 C-14.10330983 2.19487271 -7.60733342 0 0 0 Z " fill="#ACBEC2" transform="translate(857,190)"/>
<path d="M0 0 C10.74680249 1.8467997 20.30593057 6.49326537 26.75 15.42578125 C30.6918183 21.67015207 33.45744018 27.45223697 33 35 C21.78932965 34.0251591 13.52018046 29.37412036 6 21 C4.29981222 18.42674281 3.09401767 15.87497667 2 13 C1.5875 12.175 1.175 11.35 0.75 10.5 C-0.32225557 6.92581477 -0.12625207 3.72443599 0 0 Z " fill="#C9D7E2" transform="translate(767,183)"/>
<path d="M0 0 C0.99 0.33 1.98 0.66 3 1 C3.9140625 3.14453125 3.9140625 3.14453125 4.625 5.8125 C4.86476563 6.68519531 5.10453125 7.55789062 5.3515625 8.45703125 C5.56554687 9.29621094 5.77953125 10.13539063 6 11 C6.185625 11.64453125 6.37125 12.2890625 6.5625 12.953125 C8.89599935 23.87056837 6.29998406 34.31337373 0.33203125 43.59375 C-1.05239676 45.46157686 -2.46547082 47.25453897 -4 49 C-7 48 -7 48 -7.94921875 46.41796875 C-11.5167968 35.63973029 -12.42394803 20.43528343 -7.2890625 10.0546875 C-5.07323154 6.52278725 -2.67787419 3.19559653 0 0 Z " fill="#C9D6E1" transform="translate(816,141)"/>
<path d="M0 0 C0.33 0 0.66 0 1 0 C1 16.17 1 32.34 1 49 C0.67 49 0.34 49 0 49 C-0.02505615 47.8039917 -0.0501123 46.6079834 -0.07592773 45.37573242 C-0.17003852 40.94202805 -0.27025036 36.508479 -0.37231445 32.07495117 C-0.4156494 30.15539175 -0.45732552 28.23579415 -0.49731445 26.31616211 C-0.55505178 23.55831386 -0.61873635 20.80065759 -0.68359375 18.04296875 C-0.70030624 17.18350143 -0.71701874 16.32403412 -0.73423767 15.43852234 C-0.75418289 14.63791885 -0.77412811 13.83731537 -0.79467773 13.01245117 C-0.81022202 12.3085173 -0.8257663 11.60458344 -0.84178162 10.87931824 C-0.94481604 8.77300917 -0.94481604 8.77300917 -2 6 C-1.0625 2.8125 -1.0625 2.8125 0 0 Z " fill="#D4D4D4" transform="translate(591,209)"/>
</svg>
