<?xml version="1.0" encoding="UTF-8"?>
<svg version="1.1" xmlns="http://www.w3.org/2000/svg" width="390" height="115">
<path d="M0 0 C128.7 0 257.4 0 390 0 C390 37.95 390 75.9 390 115 C261.3 115 132.6 115 0 115 C0 77.05 0 39.1 0 0 Z " fill="#000101" transform="translate(0,0)"/>
<path d="M0 0 C1.48487604 -0.03083979 2.96973439 -0.06254214 4.45457458 -0.09506226 C7.56591855 -0.15189163 10.67551798 -0.17479456 13.78735352 -0.17822266 C16.96019646 -0.18650409 20.1219743 -0.25562822 23.29223633 -0.38330078 C48.68937304 -1.39096145 48.68937304 -1.39096145 55.68606567 3.16607666 C59.89339378 7.27056866 62.59224563 11.9259895 64.98268127 17.25637817 C66.42018396 20.3170046 68.28395156 22.83669375 70.30859375 25.5390625 C71.20594087 26.82967797 72.10252657 28.12082709 72.99609375 29.4140625 C71.37885224 33.49613595 68.45224574 36.21804313 65.37109375 39.2265625 C64.87480469 39.72220703 64.37851563 40.21785156 63.8671875 40.72851562 C61.1618205 43.40290514 58.39090575 45.94704092 55.4921875 48.41015625 C48.88816664 54.13537807 42.83914924 60.46682509 36.68359375 66.6640625 C35.39671927 67.9559632 34.10961167 69.24763171 32.82226562 70.5390625 C30.47341278 72.89603268 28.1258512 75.25427104 25.7800293 77.61425781 C23.85485144 79.55040967 21.9274775 81.48412338 19.99609375 83.4140625 C17.52809328 82.26232895 15.9482581 81.36622685 13.99609375 79.4140625 C14.36919987 73.46400174 15.79137468 67.93842066 17.43359375 62.2265625 C17.65080078 61.44603516 17.86800781 60.66550781 18.09179688 59.86132812 C21.17183163 48.95634021 21.17183163 48.95634021 24.37109375 46.8515625 C29.92416583 41.69513843 31.32676811 32.77664453 31.99609375 25.4140625 C30.34609375 25.4140625 28.69609375 25.4140625 26.99609375 25.4140625 C26.50109375 23.9290625 26.50109375 23.9290625 25.99609375 22.4140625 C23.98101017 21.68082454 23.98101017 21.68082454 21.99609375 21.4140625 C21.99609375 20.7540625 21.99609375 20.0940625 21.99609375 19.4140625 C21.04734375 19.4553125 20.09859375 19.4965625 19.12109375 19.5390625 C15.99609375 19.4140625 15.99609375 19.4140625 13.99609375 17.4140625 C11.9324635 17.26196977 11.9324635 17.26196977 9.99609375 18.4140625 C8.62731921 21.18296332 8.62731921 21.18296332 7.74609375 24.4765625 C7.4109375 25.58128906 7.07578125 26.68601562 6.73046875 27.82421875 C6.488125 28.67886719 6.24578125 29.53351562 5.99609375 30.4140625 C4.34609375 30.0840625 2.69609375 29.7540625 0.99609375 29.4140625 C0.57622429 31.70242472 0.57622429 31.70242472 0.99609375 34.4140625 C1.82109375 35.1978125 2.64609375 35.9815625 3.49609375 36.7890625 C5.99609375 39.4140625 5.99609375 39.4140625 6.33984375 42.48828125 C5.92018623 47.28096086 4.60885765 51.34381475 2.99609375 55.8515625 C2.56683594 57.09196289 2.56683594 57.09196289 2.12890625 58.35742188 C1.4275547 60.37965218 0.71314823 62.39734678 -0.00390625 64.4140625 C-7.29462945 58.25411444 -7.29462945 58.25411444 -10.44140625 54.9765625 C-12.75259714 52.62455588 -15.11557506 50.42302294 -17.62890625 48.2890625 C-21.55043932 44.88004662 -25.33116105 41.33733299 -29.06640625 37.7265625 C-29.66340332 37.16759277 -30.26040039 36.60862305 -30.87548828 36.03271484 C-32.5390625 34.40234375 -32.5390625 34.40234375 -35.00390625 31.4140625 C-34.70587778 28.12620241 -33.19564152 25.98368382 -31.2734375 23.3671875 C-30.71720703 22.6040625 -30.16097656 21.8409375 -29.58789062 21.0546875 C-29.00330078 20.26578125 -28.41871094 19.476875 -27.81640625 18.6640625 C-27.25115234 17.890625 -26.68589844 17.1171875 -26.10351562 16.3203125 C-24.41251539 14.01140954 -22.71271087 11.70982681 -21.00390625 9.4140625 C-20.49874733 8.41549728 -20.49874733 8.41549728 -19.98338318 7.39675903 C-15.40853635 -0.55865881 -8.27355788 0.06869662 0 0 Z " fill="#37B3FA" transform="translate(48.00390625,16.5859375)"/>
<path d="M0 0 C2.64 0 5.28 0 8 0 C8 12.21 8 24.42 8 37 C4.66666667 37 1.33333333 37 -2 37 C-2.99 37.495 -2.99 37.495 -4 38 C-7.22566084 38.52510758 -9.21205435 38.54161394 -11.94921875 36.66015625 C-13.69212427 35.15765149 -15.3682712 33.6220736 -17 32 C-17.33 33.65 -17.66 35.3 -18 37 C-20.64 37 -23.28 37 -26 37 C-26.33 35.02 -26.66 33.04 -27 31 C-27.78375 31.969375 -28.5675 32.93875 -29.375 33.9375 C-30.91288705 35.83962346 -31.79259913 36.89629957 -34 38 C-38.32816129 38.28227139 -39.98936074 38.00531963 -44 36 C-44 39.96 -44 43.92 -44 48 C-46.64 48 -49.28 48 -52 48 C-52 37.11 -52 26.22 -52 15 C-49.69 15 -47.38 15 -45 15 C-45 15.66 -45 16.32 -45 17 C-44.01 16.34 -43.02 15.68 -42 15 C-37.40728797 14.26034975 -33.97537911 14.39038806 -30 16.875 C-28 19 -28 19 -27 21 C-26.67 19.02 -26.34 17.04 -26 15 C-23.36 15 -20.72 15 -18 15 C-17.505 17.475 -17.505 17.475 -17 20 C-16.38125 19.175 -15.7625 18.35 -15.125 17.5 C-13.22062489 15.5572081 -12.24152997 15.03564179 -9.51171875 14.6328125 C-2.77338129 14.61330935 -2.77338129 14.61330935 0 16 C0 10.72 0 5.44 0 0 Z " fill="#35ACF2" transform="translate(237,18)"/>
<path d="M0 0 C1.4540625 0.7425 1.4540625 0.7425 2.9375 1.5 C2.2775 3.48 1.6175 5.46 0.9375 7.5 C-1.70907142 7.5 -4.35642413 7.43838457 -7 7.3125 C-10.79855914 7.3125 -13.02855968 8.09069445 -16.0625 10.5 C-18.40159307 14.0086396 -18.47541057 15.37089433 -18.0625 19.5 C-16.80706539 22.26195614 -15.84991547 23.9762281 -13.3125 25.6640625 C-10.42482137 26.73691532 -8.35778991 26.48753451 -5.3125 26.125 C-4.32765625 26.01414062 -3.3428125 25.90328125 -2.328125 25.7890625 C-1.58046875 25.69367187 -0.8328125 25.59828125 -0.0625 25.5 C0.5975 26.49 1.2575 27.48 1.9375 28.5 C2.2675 23.22 2.5975 17.94 2.9375 12.5 C9.27083333 12.5 15.60416667 12.5 21.9375 12.5 C21.9375 13.49 21.9375 14.48 21.9375 15.5 C22.62585938 14.76330078 22.62585938 14.76330078 23.328125 14.01171875 C27.32329541 11.69715146 31.16499459 12.18323108 35.6875 12.3125 C38.74 12.374375 41.7925 12.43625 44.9375 12.5 C44.9375 19.76 44.9375 27.02 44.9375 34.5 C42.6275 34.5 40.3175 34.5 37.9375 34.5 C37.9375 33.84 37.9375 33.18 37.9375 32.5 C37.23625 32.995 36.535 33.49 35.8125 34 C32.40233475 35.77921665 30.73196342 36.11950423 26.9375 35.5 C24.01597298 33.6655528 21.5048391 31.63467819 19.9375 28.5 C19.86799459 26.95976004 19.85297643 25.41665012 19.875 23.875 C19.88402344 23.05773437 19.89304687 22.24046875 19.90234375 21.3984375 C19.91394531 20.77195312 19.92554688 20.14546875 19.9375 19.5 C17.60455225 19.45758277 15.27047433 19.45907063 12.9375 19.5 C10.99659174 21.44090826 11.53830565 24.97293902 11.375 27.5625 C11.29121094 28.85285156 11.20742188 30.14320312 11.12109375 31.47265625 C11.03021484 32.97119141 11.03021484 32.97119141 10.9375 34.5 C8.2975 34.5 5.6575 34.5 2.9375 34.5 C2.9375 33.84 2.9375 33.18 2.9375 32.5 C1.9475 32.995 0.9575 33.49 -0.0625 34 C-5.15233594 36.12161498 -9.41070566 36.37582198 -14.6171875 34.65625 C-19.77197381 32.39242693 -23.60484216 29.92194051 -26.28125 24.875 C-28.05628075 19.47890651 -28.28002364 13.70400957 -26.24609375 8.3515625 C-20.52227949 -0.782608 -9.79283214 -4.09840862 0 0 Z " fill="#35AEF4" transform="translate(281.0625,20.5)"/>
<path d="M0 0 C3.33333333 0 6.66666667 0 10 0 C10.67675781 -0.05800781 11.35351562 -0.11601563 12.05078125 -0.17578125 C16.42076707 -0.43994274 19.12989424 -0.40136916 22.5625 2.5 C23.7690625 3.7375 23.7690625 3.7375 25 5 C25.639375 4.175 26.27875 3.35 26.9375 2.5 C31.07101568 -0.87429852 33.89200308 -0.43044918 39 0 C39.99 0 40.98 0 42 0 C44.64 0 47.28 0 50 0 C50 7.26 50 14.52 50 22 C46.33333333 22 42.66666667 22 39 22 C38.505 22.495 38.505 22.495 38 23 C32.71580679 23.61444107 30.14615169 22.20384448 26 19 C25.34 18.34 24.68 17.68 24 17 C23.21625 17.804375 22.4325 18.60875 21.625 19.4375 C18.04386452 22.93337035 18.04386452 22.93337035 14.0625 23.1875 C11 23 11 23 8 21 C7.67 24.96 7.34 28.92 7 33 C4.69 33 2.38 33 0 33 C0 22.11 0 11.22 0 0 Z " fill="#36B0F6" transform="translate(210,70)"/>
<path d="M0 0 C16 0 16 0 22 3 C23.90485426 5.42435996 24.03549448 7.23515093 24.5 10.3125 C23.82804796 15.26814629 21.48721964 17.58543077 18 21 C18.63808594 21.75925781 19.27617187 22.51851562 19.93359375 23.30078125 C20.75988281 24.29464844 21.58617187 25.28851563 22.4375 26.3125 C23.26121094 27.29863281 24.08492187 28.28476563 24.93359375 29.30078125 C27 32 27 32 28 35 C24.42026184 35.80712259 21.55389184 36.00275786 18 35 C14.36966453 31.36434925 11.68717486 27.36179108 9 23 C8.67 26.96 8.34 30.92 8 35 C5.36 35 2.72 35 0 35 C0 23.45 0 11.9 0 0 Z " fill="#36B1F8" transform="translate(160,57)"/>
<path d="M0 0 C16 0 16 0 22 3 C23.90485426 5.42435996 24.03549448 7.23515093 24.5 10.3125 C23.82804796 15.26814629 21.48721964 17.58543077 18 21 C18.721875 21.92683594 19.44375 22.85367188 20.1875 23.80859375 C21.1251261 25.01813142 22.06261926 26.22777216 23 27.4375 C23.47695312 28.04916016 23.95390625 28.66082031 24.4453125 29.29101562 C28 33.88671875 28 33.88671875 28 35 C24.42026184 35.80712259 21.55389184 36.00275786 18 35 C14.36966453 31.36434925 11.68717486 27.36179108 9 23 C8.67 26.96 8.34 30.92 8 35 C5.36 35 2.72 35 0 35 C0 23.45 0 11.9 0 0 Z " fill="#36B1F9" transform="translate(132,20)"/>
<path d="M0 0 C2.64 0 5.28 0 8 0 C8 0.66 8 1.32 8 2 C8.99 1.34 9.98 0.68 11 0 C13.04296875 -0.1953125 13.04296875 -0.1953125 15.1875 -0.125 C17.0746875 -0.063125 17.0746875 -0.063125 19 0 C19 0.66 19 1.32 19 2 C19.99 1.34 20.98 0.68 22 0 C24.62890625 -0.265625 24.62890625 -0.265625 27.5625 -0.25 C28.53316406 -0.25515625 29.50382812 -0.2603125 30.50390625 -0.265625 C33 0 33 0 35 2 C34.34 3.32 33.68 4.64 33 6 C30.69 5.67 28.38 5.34 26 5 C27.49988939 7.99977878 30.05159126 8.55588143 33 10 C35 12 35 12 35.4375 15.375 C35 19 35 19 33 21.4375 C29.16850813 23.43306868 26.23821696 23.74339693 22 23 C19 21.5 19 21.5 17 20 C17.66 18.35 18.32 16.7 19 15 C21.64 15.66 24.28 16.32 27 17 C27 16.01 27 15.02 27 14 C25.63875 13.6596875 25.63875 13.6596875 24.25 13.3125 C21 12 21 12 19.0625 9.375 C17.11651702 6.5866169 17.11651702 6.5866169 13.3125 6.625 C10.15866921 6.63363845 10.15866921 6.63363845 9 8 C8.76472227 10.34987262 8.58613583 12.70556039 8.4375 15.0625 C8.35371094 16.35285156 8.26992188 17.64320312 8.18359375 18.97265625 C8.12300781 19.97167969 8.06242187 20.97070312 8 22 C5.36 22 2.72 22 0 22 C0 14.74 0 7.48 0 0 Z " fill="#35ACF1" transform="translate(271,70)"/>
<path d="M0 0 C0.76650879 0.00249756 1.53301758 0.00499512 2.32275391 0.00756836 C3.29647949 0.01667236 4.27020508 0.02577637 5.2734375 0.03515625 C9.9140625 0.06609375 9.9140625 0.06609375 14.6484375 0.09765625 C14.6484375 7.35765625 14.6484375 14.61765625 14.6484375 22.09765625 C12.3384375 22.09765625 10.0284375 22.09765625 7.6484375 22.09765625 C7.6484375 21.43765625 7.6484375 20.77765625 7.6484375 20.09765625 C6.6584375 20.75765625 5.6684375 21.41765625 4.6484375 22.09765625 C1.23265389 22.69976048 -1.93485904 22.69612342 -5.3515625 22.09765625 C-8.91225315 19.39153136 -10.01692689 17.98789523 -10.78515625 13.6484375 C-10.99930134 9.30713258 -10.77630224 6.79139782 -8.4765625 3.03515625 C-5.48732276 0.30967296 -3.94098937 -0.02627326 0 0 Z " fill="#36B1F9" transform="translate(168.3515625,32.90234375)"/>
<path d="M0 0 C3.01125 0.144375 6.0225 0.28875 9.125 0.4375 C9.125 7.6975 9.125 14.9575 9.125 22.4375 C6.815 22.4375 4.505 22.4375 2.125 22.4375 C2.125 21.7775 2.125 21.1175 2.125 20.4375 C1.073125 21.18 1.073125 21.18 0 21.9375 C-3.41016525 23.71671665 -5.08053658 24.05700423 -8.875 23.4375 C-11.79652702 21.6030528 -14.3076609 19.57217819 -15.875 16.4375 C-16.18359375 14.51953125 -16.18359375 14.51953125 -16.3125 12.25 C-16.37308594 11.51394531 -16.43367188 10.77789062 -16.49609375 10.01953125 C-14.34399923 1.07277351 -8.28827432 -0.56352286 0 0 Z " fill="#36B1F8" transform="translate(316.875,32.5625)"/>
<path d="M0 0 C2.31 0 4.62 0 7 0 C7 5.61 7 11.22 7 17 C7.99 16.34 8.98 15.68 10 15 C12.12109375 14.6640625 12.12109375 14.6640625 14.4375 14.625 C15.19933594 14.59664062 15.96117187 14.56828125 16.74609375 14.5390625 C20.07016567 15.21885537 21.09206044 16.1833127 23 19 C23.48011913 22.09994043 23.37704068 25.12284474 23.25 28.25 C23.23195313 29.09046875 23.21390625 29.9309375 23.1953125 30.796875 C23.14830798 32.86507395 23.07656724 34.93268441 23 37 C20.69 37 18.38 37 16 37 C15.95101563 36.01257812 15.90203125 35.02515625 15.8515625 34.0078125 C15.73941406 32.08582031 15.73941406 32.08582031 15.625 30.125 C15.55539062 28.84882812 15.48578125 27.57265625 15.4140625 26.2578125 C15.32758894 22.91938301 15.32758894 22.91938301 13 21 C10.21762345 21.40528901 10.21762345 21.40528901 8 23 C7.76472227 25.34987262 7.58613583 27.70556039 7.4375 30.0625 C7.35371094 31.35285156 7.26992188 32.64320312 7.18359375 33.97265625 C7.12300781 34.97167969 7.06242187 35.97070312 7 37 C4.69 37 2.38 37 0 37 C0 24.79 0 12.58 0 0 Z " fill="#37B4FC" transform="translate(346,18)"/>
<path d="M0 0 C3.63924742 0.05198925 5.55177883 0.21735384 8.875 1.8125 C11.51458495 5.3319466 11.53179663 7.94843254 11.75 12.3125 C6.47 12.3125 1.19 12.3125 -4.25 12.3125 C-3.26 13.7975 -3.26 13.7975 -2.25 15.3125 C2.40145592 15.69274775 2.40145592 15.69274775 6.75 14.3125 C8.875 15.25 8.875 15.25 10.75 16.3125 C10.625 18.125 10.625 18.125 9.75 20.3125 C5.40532971 23.20894686 1.91468021 24.0373674 -3.25 23.3125 C-6.53522965 21.54905665 -9.55673977 19.69902046 -11.25 16.3125 C-11.66948626 12.9266466 -11.74414522 9.69181569 -11.25 6.3125 C-8.8125 3.25 -8.8125 3.25 -6.25 1.3125 C-4.53310511 -0.40439489 -2.34121863 0.05946946 0 0 Z " fill="#35ADF3" transform="translate(197.25,69.6875)"/>
<path d="M0 0 C0.97066406 -0.00515625 1.94132812 -0.0103125 2.94140625 -0.015625 C5.4375 0.25 5.4375 0.25 7.4375 2.25 C6.7775 3.57 6.1175 4.89 5.4375 6.25 C2.7975 5.92 0.1575 5.59 -2.5625 5.25 C-0.95411707 8.46676586 2.22343279 8.89670854 5.4375 10.25 C7.4375 12.25 7.4375 12.25 7.8125 15.6875 C7.4375 19.25 7.4375 19.25 6 21.125 C2.21720782 22.78573803 -1.43055277 23.4043966 -5.5625 23.25 C-8.625 21.8125 -8.625 21.8125 -10.5625 20.25 C-9.9025 18.6 -9.2425 16.95 -8.5625 15.25 C-4.6025 16.24 -4.6025 16.24 -0.5625 17.25 C-0.5625 16.26 -0.5625 15.27 -0.5625 14.25 C-1.490625 13.981875 -2.41875 13.71375 -3.375 13.4375 C-8.15073529 11.6583045 -8.15073529 11.6583045 -9.5625 9.25 C-9.4375 5.6875 -9.4375 5.6875 -8.5625 2.25 C-5.19898987 0.00765991 -3.93939944 -0.02098215 0 0 Z " fill="#35AEF5" transform="translate(337.5625,32.75)"/>
<path d="M0 0 C1.2684375 0.2475 1.2684375 0.2475 2.5625 0.5 C6.01023484 1.11601128 6.01023484 1.11601128 9.5625 0.8125 C13 1 13 1 15.9375 2.5 C18.43708842 5.52980415 18.74273321 7.24708333 18.484375 11.09375 C18 13 18 13 15.875 15.5 C12.50962644 17.25584708 10.73984509 17.63656938 7 17 C3.6140356 14.4605267 2.46840191 11.88077647 1 8 C0.34 7.67 -0.32 7.34 -1 7 C-0.67 4.69 -0.34 2.38 0 0 Z " fill="#040E14" transform="translate(80,51)"/>
<path d="M0 0 C3.71198163 -0.34530062 5.57283878 -0.25629673 8.8125 1.6875 C11 4 11 4 11.5 6.5625 C11.76654303 9.27296996 11.76654303 9.27296996 14.5625 10.8125 C15.366875 11.204375 16.17125 11.59625 17 12 C16.67 14.31 16.34 16.62 16 19 C13 18 10 17 7 16 C5.700625 16.061875 4.40125 16.12375 3.0625 16.1875 C-0.12701187 16.23449097 -0.79408693 16.14928697 -3.5 14.1875 C-5 12 -5 12 -5 9 C-2.69 9.33 -0.38 9.66 2 10 C2.99 8.02 3.98 6.04 5 4 C2.525 3.01 2.525 3.01 0 2 C0 1.34 0 0.68 0 0 Z " fill="#02070A" transform="translate(38,23)"/>
<path d="M0 0 C2.31 0 4.62 0 7 0 C7 7.26 7 14.52 7 22 C4.69 22 2.38 22 0 22 C0 14.74 0 7.48 0 0 Z " fill="#37B5FD" transform="translate(262,70)"/>
<path d="M0 0 C1.98 0 3.96 0 6 0 C6 6.93 6 13.86 6 21 C4.02 21 2.04 21 0 21 C0 14.07 0 7.14 0 0 Z " fill="#38B6FF" transform="translate(212,34)"/>
<path d="M0 0 C0.33 0 0.66 0 1 0 C1.495 15.345 1.495 15.345 2 31 C1.34 31 0.68 31 0 31 C-0.226875 30.38125 -0.45375 29.7625 -0.6875 29.125 C-2.46283129 26.2506541 -3.77475303 25.995023 -7 25 C-9.76602375 24.63676688 -12.52649735 24.49450682 -15.3125 24.375 C-16.05306641 24.33632813 -16.79363281 24.29765625 -17.55664062 24.2578125 C-19.37071309 24.16418295 -21.18532116 24.08103149 -23 24 C-23 23.67 -23 23.34 -23 23 C-21.64455078 22.80083984 -21.64455078 22.80083984 -20.26171875 22.59765625 C-19.08222656 22.42105469 -17.90273437 22.24445312 -16.6875 22.0625 C-15.51574219 21.88847656 -14.34398437 21.71445312 -13.13671875 21.53515625 C-9.98358597 21.07906969 -9.98358597 21.07906969 -7 20 C-7 20.66 -7 21.32 -7 22 C-4.69 22 -2.38 22 0 22 C0 14.74 0 7.48 0 0 Z " fill="#06141C" transform="translate(183,33)"/>
<path d="M0 0 C0.33 0 0.66 0 1 0 C1 10.89 1 21.78 1 33 C0.67 33 0.34 33 0 33 C-0.33 27.39 -0.66 21.78 -1 16 C-2.65 15.67 -4.3 15.34 -6 15 C-6.33 15.33 -6.66 15.66 -7 16 C-9.33297433 16.04092937 -11.66705225 16.04241723 -14 16 C-14.66 14.68 -15.32 13.36 -16 12 C-10.72 12 -5.44 12 0 12 C-0.33 10.02 -0.66 8.04 -1 6 C-0.5625 2.625 -0.5625 2.625 0 0 Z " fill="#0C2839" transform="translate(209,70)"/>
<path d="M0 0 C1.134375 0.020625 2.26875 0.04125 3.4375 0.0625 C4.625 2.8125 4.625 2.8125 5.4375 6.0625 C4.4375 8.4375 4.4375 8.4375 2.4375 10.0625 C-0.625 10.5 -0.625 10.5 -3.5625 10.0625 C-5.5625 7.0625 -5.5625 7.0625 -5.25 3.9375 C-4.32657507 0.07590483 -4.32657507 0.07590483 0 0 Z " fill="#35ADF2" transform="translate(90.5625,54.9375)"/>
<path d="M0 0 C6.72 0.72 6.72 0.72 8 2 C8.1875 4.9375 8.1875 4.9375 8 8 C6 10 6 10 3 10.3125 C2.01 10.209375 1.02 10.10625 0 10 C-2 7 -2 7 -1.6875 3.875 C-1 1 -1 1 0 0 Z " fill="#02090D" transform="translate(219,76)"/>
<path d="M0 0 C1 1 1 1 1.1875 3.9375 C1 7 1 7 -1 9 C-4 9.3125 -4 9.3125 -7 9 C-9 6 -9 6 -8.75 2.875 C-8.37875 1.451875 -8.37875 1.451875 -8 0 C-5.11795733 -1.44102133 -3.08226581 -0.65580124 0 0 Z " fill="#02080B" transform="translate(251,77)"/>
<path d="M0 0 C2 2 2 2 2.25 5 C2 8 2 8 0 10 C-3.625 9.625 -3.625 9.625 -7 9 C-8.33157895 3.55263158 -8.33157895 3.55263158 -6.875 1.125 C-4.40522151 -0.3568671 -2.83386167 -0.3633156 0 0 Z " fill="#02080B" transform="translate(235,39)"/>
<path d="M0 0 C2.5625 0.3125 2.5625 0.3125 4.4375 1.5 C5.5625 3.3125 5.5625 3.3125 5.375 5.875 C4.5625 8.3125 4.5625 8.3125 2.5625 10.3125 C0.0625 10.5625 0.0625 10.5625 -2.4375 10.3125 C-4.4375 8.3125 -4.4375 8.3125 -4.6875 5.3125 C-4.37675292 1.58353509 -3.7821044 0.48488518 0 0 Z " fill="#02070A" transform="translate(313.4375,38.6875)"/>
<path d="M0 0 C2.5625 0.3125 2.5625 0.3125 4.4375 1.5 C5.5625 3.3125 5.5625 3.3125 5.375 5.875 C4.5625 8.3125 4.5625 8.3125 2.5625 10.3125 C0.0625 10.5625 0.0625 10.5625 -2.4375 10.3125 C-4.4375 8.3125 -4.4375 8.3125 -4.6875 5.3125 C-4.37675292 1.58353509 -3.7821044 0.48488518 0 0 Z " fill="#02070A" transform="translate(170.4375,38.6875)"/>
<path d="M0 0 C0.33 0 0.66 0 1 0 C1 12.21 1 24.42 1 37 C0.67 37 0.34 37 0 37 C-0.01417969 36.31292969 -0.02835937 35.62585937 -0.04296875 34.91796875 C-0.18691192 32.19861001 -0.40711754 29.65937858 -1 27 C-3.19640473 24.8650707 -3.19640473 24.8650707 -6 24 C-6.763125 23.608125 -7.52625 23.21625 -8.3125 22.8125 C-8.869375 22.544375 -9.42625 22.27625 -10 22 C-10 21.34 -10 20.68 -10 20 C-4.25 19.875 -4.25 19.875 -2 21 C-0.98888907 17.95086772 -0.98888907 17.95086772 -2 15 C-1.34 15 -0.68 15 0 15 C0 10.05 0 5.1 0 0 Z " fill="#081B26" transform="translate(345,18)"/>
<path d="M0 0 C2.5 0.25 2.5 0.25 4.5 2.25 C4.75 5.25 4.75 5.25 4.5 8.25 C2.5 10.25 2.5 10.25 0 10.5 C-2.5 10.25 -2.5 10.25 -4.5 8.25 C-4.75 5.25 -4.75 5.25 -4.5 2.25 C-2.5 0.25 -2.5 0.25 0 0 Z " fill="#010304" transform="translate(197.5,38.75)"/>
<path d="M0 0 C0.33 0 0.66 0 1 0 C1 3.3 1 6.6 1 10 C2.98 10.495 2.98 10.495 5 11 C7.01526169 11.96887581 9.01833966 12.9641321 11 14 C11 14.99 11 15.98 11 17 C8.36 16.67 5.72 16.34 3 16 C2.34 17.98 1.68 19.96 1 22 C0.67 22 0.34 22 0 22 C0 14.74 0 7.48 0 0 Z " fill="#040E14" transform="translate(326,33)"/>
<path d="M0 0 C2.5625 0.1875 2.5625 0.1875 4.5625 2.1875 C4.00694444 6.74305556 4.00694444 6.74305556 2.5625 8.1875 C0.125 8.375 0.125 8.375 -2.4375 8.1875 C-3.0975 7.5275 -3.7575 6.8675 -4.4375 6.1875 C-3.71780303 0.28598485 -3.71780303 0.28598485 0 0 Z " fill="#36B0F7" transform="translate(265.4375,56.8125)"/>
<path d="M0 0 C3 0.125 3 0.125 4 1.125 C4.125 4.125 4.125 4.125 4 7.125 C3 8.125 3 8.125 0 8.25 C-3 8.125 -3 8.125 -4 7.125 C-4.125 4.125 -4.125 4.125 -4 1.125 C-3 0.125 -3 0.125 0 0 Z " fill="#35AEF4" transform="translate(215,19.875)"/>
<path d="M0 0 C5.875 0.875 5.875 0.875 7 2 C7.125 5 7.125 5 7 8 C6 9 6 9 2.9375 9.0625 C1.968125 9.041875 0.99875 9.02125 0 9 C0 6.03 0 3.06 0 0 Z " fill="#020609" transform="translate(168,63)"/>
<path d="M0 0 C5.875 0.875 5.875 0.875 7 2 C7.125 5 7.125 5 7 8 C6 9 6 9 2.9375 9.0625 C1.968125 9.041875 0.99875 9.02125 0 9 C0 6.03 0 3.06 0 0 Z " fill="#020609" transform="translate(140,26)"/>
<path d="M0 0 C6.25201072 0.58981233 6.25201072 0.58981233 8.9375 2.0625 C10.69959328 5.27572893 10.17782537 8.3842174 10 12 C9.01 12 8.02 12 7 12 C7 11.01 7 10.02 7 9 C6.36893571 6.98848259 5.70626239 4.98636298 5 3 C2.03 2.505 2.03 2.505 -1 2 C-0.67 1.34 -0.34 0.68 0 0 Z " fill="#02070B" transform="translate(88,52)"/>
<path d="M0 0 C1.98 0 3.96 0 6 0 C6.33 0.99 6.66 1.98 7 3 C4.36 3 1.72 3 -1 3 C-0.67 2.01 -0.34 1.02 0 0 Z " fill="#051118" transform="translate(195,75)"/>
</svg>
